<?xml version="1.0" encoding="iso-8859-1"?>
<!-- Generator: Adobe Illustrator 19.0.0, SVG Export Plug-In . SVG Version: 6.00 Build 0)  -->
<svg version="1.1" id="Capa_1" xmlns="http://www.w3.org/2000/svg" xmlns:xlink="http://www.w3.org/1999/xlink" x="0px" y="0px"
	 viewBox="0 0 512 512" style="enable-background:new 0 0 512 512;" xml:space="preserve">
<g>
	<g>
		<path d="M512,270.529c0-29.671-15.556-57.062-40.399-72.441c5.486-11.432,8.351-23.965,8.351-36.78
			c0-36.87-45.526-66.747-75.336-82.353C401.433,34.883,364.575,0,319.726,0c-25.366,0-48.57,10.245-64.434,27.94
			C239.288,10.247,216.578,0,192.274,0c-29.505,0-57.423,15.827-72.742,41.018c-7.072,11.63-11.293,24.926-12.182,38.509
			c-0.005,0.079-0.016,0.157-0.021,0.236c-1.797,0.915-3.976,2.061-6.637,3.498c-6.691,3.612-16.797,9.46-26.942,16.806
			c-27.671,20.035-41.702,40.639-41.702,61.241c0,12.815,2.864,25.348,8.35,36.78C15.556,213.467,0,240.858,0,270.529
			c0,28.674,14.233,54.992,37.699,70.712c-3.713,9.7-5.651,20.085-5.651,30.494c0,30.764,16.25,58.64,42.715,73.831
			C85.886,484.333,130.161,512,182.259,512c26.955,0,53.342-7.911,73.685-21.861C276.161,504.27,302.037,512,329.741,512
			c52.098,0,96.374-27.667,107.496-66.434c26.466-15.19,42.715-43.067,42.715-73.831c0-10.408-1.938-20.793-5.651-30.494
			C497.767,325.521,512,299.204,512,270.529z M182.259,492c-44.051,0-82.353-23.746-89.093-55.236
			c-0.633-2.958-2.572-5.471-5.272-6.834c-16.159-8.156-27.836-22.266-32.956-38.924c8.358,4.165,17.362,6.284,26.753,6.284h0.03
			c13.606,0,27.571-4.986,38.067-13.618c4.132-3.398,4.745-9.985,1.385-14.08c-3.376-4.114-9.976-4.742-14.073-1.383
			c-7.25,5.94-16.03,9.08-25.4,9.08c-11.213,0-21.684-4.603-29.259-12.721c0.863-7.945,3.167-15.578,6.894-22.769
			c2.537-4.895,0.633-10.919-4.255-13.468C33.441,317.049,20,294.9,20,270.529c0-25.488,15.004-48.778,38.224-59.333
			c2.648-1.204,4.642-3.501,5.459-6.293c0.817-2.792,0.378-5.802-1.202-8.244c-6.825-10.544-10.433-22.769-10.433-35.351
			c0-23.708,34.019-47.372,56.729-59.765c4.11,20.794,15.909,39.653,33.284,52.372c4.224,3.092,10.812,2.16,13.977-2.162
			c3.262-4.457,2.294-10.714-2.163-13.976c-25.223-18.464-33.84-53.834-19.825-81.763C144.997,34.195,167.848,20,192.274,20
			c21.223,0,40.865,10.219,53.1,27.477l0.001,1.009c-0.04,6.593-0.058,21.222-0.036,54.284h-55.63c-4.044,0-7.69,2.436-9.238,6.172
			c-1.548,3.736-0.693,8.037,2.165,10.897c15.629,15.637,15.629,41.079,0.001,56.716c-15.161,15.17-41.556,15.124-56.672,0
			c-3.904-3.906-10.235-3.908-14.142-0.003c-3.906,3.904-3.908,10.236-0.003,14.142c1.544,1.545,3.164,2.987,4.839,4.34
			L91.34,221.036c-13.61,13.669-13.594,35.867,0.048,49.516c13.376,13.384,36.24,13.324,49.556,0.001
			c3.904-3.907,3.902-10.238-0.004-14.142c-3.908-3.904-10.237-3.903-14.141,0.002c-5.507,5.509-15.573,5.696-21.264,0.002
			c-5.866-5.869-5.866-15.419,0-21.289c0.03-0.031,0.061-0.062,0.091-0.093c0,0,29.178-29.965,29.181-29.969
			c0.34-0.349,10.461,2.572,11.733,2.737c18.395,2.38,37.142-4,50.242-17.107c18.327-18.337,22.312-45.673,11.956-67.924h36.618
			c0.023,25.576,0.064,59.411,0.127,104.193H221v-2.527c0-5.523-4.477-10-10-10s-10,4.477-10,10v25.051c0,5.523,4.477,10,10,10
			s10-4.477,10-10v-2.523h24.511c0.007,4.729,0.073,49.256,0.1,66.175h-27.99c-1.692-4.666-4.397-9.043-8.131-12.779
			c-6.618-6.622-15.417-10.268-24.777-10.268s-18.16,3.646-24.778,10.268c-3.904,3.907-3.902,10.238,0.004,14.143
			c3.907,3.903,10.237,3.902,14.142-0.003c13.279-13.28,35.044,7.501,21.263,21.288c-3.904,3.906-3.903,10.238,0.003,14.142
			c3.767,3.765,10.277,3.864,14.142-0.003c4.786-4.789,7.889-10.631,9.32-16.787h26.834c0.039,23.033,0.078,44.837,0.117,64.198
			h-78.456c-2.653,0-5.197,1.054-7.073,2.931c-13.658,13.665-13.658,35.899-0.001,49.565c13.272,13.281,36.357,13.207,49.555,0.001
			c3.904-3.907,3.903-10.238-0.003-14.142c-3.907-3.904-10.236-3.903-14.14,0.001c-5.623,5.624-15.677,5.593-21.265,0.002
			c-4.967-4.97-5.729-12.579-2.283-18.358h73.708c0.037,17.078,0.139,52.249,0.155,55.421C228.765,485.031,205.842,492,182.259,492z
			 M456.921,328.332c-4.888,2.549-6.792,8.573-4.255,13.468c4.834,9.329,7.286,19.401,7.286,29.936
			c0,24.736-13.735,47.035-35.845,58.195c-2.701,1.363-4.639,3.876-5.272,6.834C412.094,468.254,373.792,492,329.741,492
			c-23.897,0-46.84-6.966-63.748-19.23l-0.081-55.433h36.145c3.638,15.471,17.541,27.026,34.1,27.026
			c19.32,0,35.038-15.724,35.038-35.051c0-19.327-15.718-35.051-35.038-35.051c-15.117,0-28.028,9.628-32.93,23.076h-37.344
			l-0.093-64.198h92.875c4.314,14.469,17.73,25.051,33.577,25.051c19.32,0,35.038-15.724,35.038-35.051
			c0-19.327-15.718-35.051-35.038-35.051c-15.847,0-29.263,10.582-33.577,25.051H265.76l-0.096-66.175h21.893
			c4.314,14.469,17.73,25.051,33.577,25.051c19.32,0,35.038-15.724,35.038-35.051c0-19.327-15.718-35.051-35.038-35.051
			c-15.847,0-29.263,10.582-33.577,25.051h-21.922l-0.152-104.193h29.209c4.449,14.248,17.763,24.619,33.453,24.619
			c19.32,0,35.038-15.724,35.038-35.051c0-19.327-15.718-35.051-35.038-35.051c-16.004,0-29.526,10.793-33.7,25.483h-28.991
			l-0.081-55.382C277.242,30.185,297.346,20,319.726,20c35.903,0,65.113,29.228,65.113,65.153c0,6.172,4.858,8.633,6.932,9.684
			c42.692,21.625,68.18,46.474,68.181,66.471c0.001,24.902-16.313,54.212-43.612,55.093c-2.67,0.08-5.15,1.2-6.98,3.15
			c-1.83,1.94-2.79,4.49-2.7,7.16c0.08,2.61,1.16,5.05,3.04,6.87c1.87,1.82,4.34,2.82,6.95,2.82h0.03c0.09,0,0.189,0,0.279-0.01
			c16.717-1.884,32.961-8.194,44.037-21.333C480.055,226.816,492,247.794,492,270.529C492,294.9,478.559,317.049,456.921,328.332z
			 M321.119,409.312c0-8.299,6.746-15.051,15.038-15.051c8.292,0,15.038,6.752,15.038,15.051c0,8.299-6.746,15.051-15.038,15.051
			S321.119,417.611,321.119,409.312z M377.204,323.138c0-8.299,6.746-15.051,15.038-15.051s15.038,6.752,15.038,15.051
			s-6.746,15.051-15.038,15.051S377.204,331.438,377.204,323.138z M306.097,236.963c0-8.299,6.746-15.051,15.038-15.051
			s15.038,6.752,15.038,15.051c0,8.299-6.746,15.051-15.038,15.051S306.097,245.262,306.097,236.963z M313.107,112.338
			c0-8.299,6.746-15.051,15.038-15.051s15.038,6.752,15.038,15.051s-6.746,15.051-15.038,15.051S313.107,120.637,313.107,112.338z"
			/>
	</g>
</g>
<g>
	<g>
		<path d="M132.44,331.53c-2.78-0.24-5.54,0.7-7.6,2.58c-1.86,1.7-3,4.02-3.21,6.53c-0.23,2.67,0.59,5.26,2.32,7.3
			c1.72,2.04,4.13,3.29,6.79,3.52c0.29,0.02,0.57,0.03,0.86,0.03c2.5,0,4.89-0.93,6.74-2.62c1.86-1.7,3-4.02,3.22-6.53
			c0-0.01,0-0.01-0.01-0.01C142.01,336.84,137.93,331.99,132.44,331.53z"/>
	</g>
</g>
<g>
	<g>
		<path d="M387.28,205.19c0,0,0,0-0.01-0.01c-1.87-1.81-4.34-2.8-6.94-2.8c-2.74,0-5.3,1.08-7.2,3.05c-1.85,1.92-2.85,4.45-2.8,7.12
			c0.04,2.67,1.12,5.16,3.04,7.01c0,0,0,0.01,0.01,0.01c1.87,1.81,4.34,2.81,6.94,2.81c2.74,0,5.3-1.09,7.2-3.06
			C391.34,215.36,391.24,209.03,387.28,205.19z"/>
	</g>
</g>
<g>
</g>
<g>
</g>
<g>
</g>
<g>
</g>
<g>
</g>
<g>
</g>
<g>
</g>
<g>
</g>
<g>
</g>
<g>
</g>
<g>
</g>
<g>
</g>
<g>
</g>
<g>
</g>
<g>
</g>
</svg>
